<svg width="24" height="25" viewBox="0 0 24 25" fill="none" xmlns="http://www.w3.org/2000/svg">
<path d="M11.9931 2.44611C7.85293 2.44611 4.49365 5.46978 4.49365 9.1956C4.49365 15.1951 11.9931 23.4445 11.9931 23.4445C11.9931 23.4445 19.4925 15.1951 19.4925 9.1956C19.4925 5.46978 16.1332 2.44611 11.9931 2.44611ZM11.9931 12.9453C11.3998 12.9453 10.8198 12.7694 10.3265 12.4398C9.83319 12.1101 9.4487 11.6416 9.22166 11.0935C8.99461 10.5454 8.9352 9.94221 9.05095 9.36031C9.1667 8.77842 9.4524 8.24391 9.87193 7.82438C10.2915 7.40485 10.826 7.11915 11.4079 7.00341C11.9898 6.88766 12.5929 6.94707 13.141 7.17411C13.6892 7.40116 14.1577 7.78565 14.4873 8.27896C14.8169 8.77227 14.9929 9.35224 14.9929 9.94554C14.992 10.7409 14.6757 11.5034 14.1133 12.0657C13.5509 12.6281 12.7884 12.9444 11.9931 12.9453Z" fill="black"/>
</svg>
