<svg width="25" height="25" viewBox="0 0 25 25" fill="none" xmlns="http://www.w3.org/2000/svg">
<path d="M12.9712 3.1582C7.58706 3.1582 3.22192 7.52334 3.22192 12.9075C3.22192 18.2916 7.58706 22.6567 12.9712 22.6567C18.3553 22.6567 22.7204 18.2916 22.7204 12.9075C22.7204 7.52334 18.3553 3.1582 12.9712 3.1582ZM17.4708 14.4074H12.9712C12.7723 14.4074 12.5815 14.3283 12.4409 14.1877C12.3003 14.0471 12.2212 13.8563 12.2212 13.6574V6.90792C12.2212 6.70902 12.3003 6.51827 12.4409 6.37763C12.5815 6.23699 12.7723 6.15798 12.9712 6.15798C13.1701 6.15798 13.3608 6.23699 13.5015 6.37763C13.6421 6.51827 13.7211 6.70902 13.7211 6.90792V12.9075H17.4708C17.6697 12.9075 17.8605 12.9865 18.0011 13.1271C18.1418 13.2678 18.2208 13.4585 18.2208 13.6574C18.2208 13.8563 18.1418 14.0471 18.0011 14.1877C17.8605 14.3283 17.6697 14.4074 17.4708 14.4074Z" fill="black"/>
</svg>
